# xmcd
#
# Track frame offsets:
#	150
#	16077
#	33633
#	47075
#	62481
#	79553
#	94330
#	113620
#	130350
#	147934
#	161018
#	177143
#	192075
#	207289
#	222295
#	236898
#	253882
#	267143
#	279172
#
# Disc length: 3971 seconds
#
# Revision: 0
# Processed by: cddbd v1.5.2PL0 Copyright (c) Steve Scherf et al.
# Submitted via: audiograbber 1.83.01
#
DISCID=0c0f8113
DTITLE=Diamond Back of Texas - Diamond Back of Texas 039
DYEAR=2011
DGENRE=Country
TTITLE0=I Remember When  - Mitch Snow
TTITLE1=Without Love - Glenn Erickson
TTITLE2=One Way Down  - Gaylon Embrew
TTITLE3=Old Shep  - B. Jeff Stone
TTITLE4=While My Heart  - Lenaye Pearson
TTITLE5=Take This Lonesome Man  - Bruce Greaves
TTITLE6=Don´t Tell Me Bout Lonely  - Wiliam Ray
TTITLE7=Mister Blues Man  - Angie Fletcher
TTITLE8=Love Me  - B. Jeff Stone
TTITLE9=Powerful Pain  - Steve Bounds
TTITLE10=She´s The Only Thing In Life (that I Do Right)  - Stan Lowhon
TTITLE11=When They Sing Amazing Grace  - Franklin D Neal
TTITLE12=Why Me Lord  - B. Jeff Stone
TTITLE13=I Know You Could  - Sylvia S´aenz
TTITLE14=Cold October Night  - Phillip Clarkson
TTITLE15=I Met Jesus  - Franklin D Neal
TTITLE16=Dreams Of Yesterday - William Ray
TTITLE17=In The Ghetto  - Jeffrey Scott Davis
TTITLE18=She Believes In  Me  - Rod Owen
EXTD=
EXTT0=
EXTT1=
EXTT2=
EXTT3=
EXTT4=
EXTT5=
EXTT6=
EXTT7=
EXTT8=
EXTT9=
EXTT10=
EXTT11=
EXTT12=
EXTT13=
EXTT14=
EXTT15=
EXTT16=
EXTT17=
EXTT18=
PLAYORDER=
